<svg width="191" height="191" viewBox="0 0 191 191" fill="none" xmlns="http://www.w3.org/2000/svg">
<rect x="0.354492" y="0.801025" width="190" height="190" rx="15" fill="#2B5DEB"/>
<path d="M42.7513 116.86C41.8758 112.206 42.5292 107.393 44.6141 103.14L48.1275 95.9738C53.4691 85.0782 68.2579 83.2905 76.0418 92.5995V92.5995C80.0571 97.4015 81.0627 104.04 78.6498 109.816L77.5327 112.49C74.854 118.902 76.0065 126.275 80.5141 131.564L83.1656 134.675C87.3753 139.614 87.4777 146.848 83.4094 151.905V151.905C80.039 156.094 74.5053 157.885 69.3195 156.466L63.1745 154.784C54.603 152.438 48.1212 145.407 46.4783 136.674L42.7513 116.86Z" fill="#333333"/>
<path d="M141.116 88.507C139.504 94.5237 135.353 99.5409 129.744 102.251L125.758 104.177C117.956 107.948 108.566 105.093 104.183 97.6176V97.6176C100.516 91.3655 101.323 83.4589 106.176 78.0758L107.011 77.1491C110.761 72.9892 112.404 67.3429 111.47 61.8205L110.353 55.211C109.465 49.9603 111.774 44.6829 116.233 41.7719V41.7719C121.199 38.5304 127.705 38.9423 132.222 42.7841L138.056 47.7463C145.01 53.6611 147.937 63.0517 145.574 71.8699L141.116 88.507Z" fill="#333333"/>
</svg>
