<svg width="17" height="17" viewBox="0 0 17 17" fill="none" xmlns="http://www.w3.org/2000/svg">
<path fill-rule="evenodd" clip-rule="evenodd" d="M3.89532 8.49996C3.52713 8.49996 3.22866 8.79844 3.22866 9.16663V13.8333C3.22866 14.2015 3.52713 14.5 3.89532 14.5H13.2287C13.5968 14.5 13.8953 14.2015 13.8953 13.8333V9.16663C13.8953 8.79844 13.5968 8.49996 13.2287 8.49996H3.89532ZM1.89532 9.16663C1.89532 8.06206 2.79076 7.16663 3.89532 7.16663H13.2287C14.3332 7.16663 15.2287 8.06206 15.2287 9.16663V13.8333C15.2287 14.9379 14.3332 15.8333 13.2287 15.8333H3.89532C2.79076 15.8333 1.89532 14.9379 1.89532 13.8333V9.16663Z" fill="#455065"/>
<path fill-rule="evenodd" clip-rule="evenodd" d="M8.56198 2.49996C7.85474 2.49996 7.17646 2.78091 6.67636 3.28101C6.17627 3.78111 5.89531 4.45938 5.89531 5.16663V7.83329C5.89531 8.20148 5.59684 8.49996 5.22865 8.49996C4.86046 8.49996 4.56198 8.20148 4.56198 7.83329V5.16663C4.56198 4.10576 4.98341 3.08834 5.73355 2.3382C6.4837 1.58805 7.50112 1.16663 8.56198 1.16663C9.62285 1.16663 10.6403 1.58805 11.3904 2.3382C12.1406 3.08834 12.562 4.10576 12.562 5.16663V7.83329C12.562 8.20148 12.2635 8.49996 11.8953 8.49996C11.5271 8.49996 11.2286 8.20148 11.2286 7.83329V5.16663C11.2286 4.45938 10.9477 3.78111 10.4476 3.28101C9.9475 2.78091 9.26923 2.49996 8.56198 2.49996Z" fill="#455065"/>
</svg>
