<svg width="232" height="79" viewBox="0 0 232 79" fill="none" xmlns="http://www.w3.org/2000/svg">
<path d="M4.66588 44.1941V13.1741H7.83388L20.2859 41.2901H19.0099L31.4619 13.1741H34.6299V44.1941H31.2859V17.8821H32.6059L20.8579 44.1941H18.4379L6.64588 17.8821H7.96588V44.1941H4.66588ZM42.3914 44.1941V13.1741H62.1914V16.1661H45.9554V26.9461H61.2234V29.9821H45.9554V41.1581H62.1914V44.1941H42.3914ZM77.9489 44.5901C75.4556 44.5901 73.2262 44.2674 71.2609 43.6221C69.2956 42.9768 67.5796 42.0528 66.1129 40.8501L67.4329 37.9461C68.4596 38.7088 69.4862 39.3541 70.5129 39.8821C71.5689 40.3808 72.6982 40.7621 73.9009 41.0261C75.1036 41.2608 76.4529 41.3781 77.9489 41.3781C80.5596 41.3781 82.4956 40.8941 83.7569 39.9261C85.0182 38.9581 85.6489 37.6674 85.6489 36.0541C85.6489 34.6754 85.2089 33.6194 84.3289 32.8861C83.4489 32.1528 81.9089 31.5661 79.7089 31.1261L75.0889 30.2021C72.2436 29.6154 70.1169 28.6621 68.7089 27.3421C67.3302 26.0221 66.6409 24.2328 66.6409 21.9741C66.6409 20.1261 67.1102 18.5128 68.0489 17.1341C69.0169 15.7554 70.3662 14.6848 72.0969 13.9221C73.8276 13.1594 75.8369 12.7781 78.1249 12.7781C80.3249 12.7781 82.3342 13.1154 84.1529 13.7901C85.9716 14.4354 87.5262 15.3888 88.8169 16.6501L87.5409 19.4661C86.1622 18.2341 84.7102 17.3541 83.1849 16.8261C81.6889 16.2688 79.9876 15.9901 78.0809 15.9901C75.6756 15.9901 73.7689 16.5181 72.3609 17.5741C70.9822 18.6008 70.2929 20.0088 70.2929 21.7981C70.2929 23.2354 70.7329 24.3648 71.6129 25.1861C72.4929 25.9781 73.9449 26.5794 75.9689 26.9901L80.6329 27.9141C83.6249 28.5301 85.8249 29.4541 87.2329 30.6861C88.6409 31.9181 89.3449 33.6488 89.3449 35.8781C89.3449 37.5794 88.8756 39.0901 87.9369 40.4101C87.0276 41.7301 85.7222 42.7568 84.0209 43.4901C82.3196 44.2234 80.2956 44.5901 77.9489 44.5901ZM95.243 44.1941V13.1741H98.895V26.9021H117.595V13.1741H121.203V44.1941H117.595V30.0261H98.895V44.1941H95.243ZM128.93 44.1941V13.1741H132.582V27.2541H132.67L147.542 13.1741H152.206L135.09 29.1901L135.134 27.3421L153.438 44.1941H148.642L132.67 29.5861H132.582V44.1941H128.93ZM154.384 28.6621C154.384 25.3768 154.941 22.5608 156.056 20.2141C157.2 17.8381 158.828 16.0048 160.94 14.7141C163.081 13.4234 165.648 12.7781 168.64 12.7781C171.544 12.7781 174.067 13.4234 176.208 14.7141C178.349 16.0048 179.992 17.8381 181.136 20.2141C182.309 22.5608 182.896 25.3621 182.896 28.6181C182.896 31.9034 182.309 34.7341 181.136 37.1101C179.963 39.4861 178.305 41.3341 176.164 42.6541C174.052 43.9448 171.544 44.5901 168.64 44.5901C165.648 44.5901 163.096 43.9448 160.984 42.6541C158.872 41.3341 157.244 39.4861 156.1 37.1101C154.956 34.7341 154.384 31.9181 154.384 28.6621ZM158.212 28.6621C158.212 32.6514 159.092 35.7754 160.852 38.0341C162.612 40.2634 165.208 41.3781 168.64 41.3781C171.925 41.3781 174.477 40.2634 176.296 38.0341C178.144 35.7754 179.068 32.6514 179.068 28.6621C179.068 24.6434 178.159 21.5341 176.34 19.3341C174.521 17.1048 171.955 15.9901 168.64 15.9901C165.208 15.9901 162.612 17.1048 160.852 19.3341C159.092 21.5341 158.212 24.6434 158.212 28.6621ZM198.597 44.1941L185.089 13.1741H189.005L201.017 41.2901H199.653L211.753 13.1741H215.537L201.941 44.1941H198.597Z" fill="#455065"/>
<path d="M213.89 44.1941L200.382 13.1741H204.298L216.31 41.2901H214.946L227.046 13.1741H230.83L217.234 44.1941H213.89Z" fill="#455065"/>
<path d="M38.0479 73.1941L38.7139 69.9181H37.0399V68.8561H38.8939L39.7579 64.6981H37.4179V63.6361H39.9559L40.5859 60.5041H41.7379L41.1079 63.6361H43.9519L44.5819 60.5041H45.7339L45.1039 63.6361H46.7599V64.6981H44.8879L44.0419 68.8561H46.3999V69.9181H43.8439L43.1779 73.1941H42.0079L42.6739 69.9181H39.8479L39.2179 73.1941H38.0479ZM40.0639 68.8561H42.8899L43.7359 64.6981H40.8919L40.0639 68.8561ZM51.9548 73.1941V61.7641H47.4728V60.5041H57.9128V61.7641H53.4488V73.1941H51.9548ZM59.5781 73.1941V59.9461H61.0361V66.1561H60.8021C61.0541 65.4481 61.4741 64.9141 62.0621 64.5541C62.6621 64.1821 63.3521 63.9961 64.1321 63.9961C65.2121 63.9961 66.0161 64.2901 66.5441 64.8781C67.0721 65.4541 67.3361 66.3301 67.3361 67.5061V73.1941H65.8781V67.5961C65.8781 66.7561 65.7101 66.1441 65.3741 65.7601C65.0501 65.3761 64.5221 65.1841 63.7901 65.1841C62.9501 65.1841 62.2781 65.4421 61.7741 65.9581C61.2821 66.4741 61.0361 67.1521 61.0361 67.9921V73.1941H59.5781ZM74.139 73.3561C72.723 73.3561 71.607 72.9481 70.791 72.1321C69.975 71.3041 69.567 70.1581 69.567 68.6941C69.567 67.7461 69.747 66.9241 70.107 66.2281C70.467 65.5201 70.971 64.9741 71.619 64.5901C72.267 64.1941 73.011 63.9961 73.851 63.9961C74.679 63.9961 75.375 64.1701 75.939 64.5181C76.503 64.8661 76.935 65.3641 77.235 66.0121C77.535 66.6481 77.685 67.4041 77.685 68.2801V68.8201H70.683V67.9021H76.731L76.425 68.1361C76.425 67.1761 76.209 66.4261 75.777 65.8861C75.345 65.3461 74.703 65.0761 73.851 65.0761C72.951 65.0761 72.249 65.3941 71.745 66.0301C71.241 66.6541 70.989 67.5001 70.989 68.5681V68.7301C70.989 69.8581 71.265 70.7161 71.817 71.3041C72.381 71.8801 73.167 72.1681 74.175 72.1681C74.715 72.1681 75.219 72.0901 75.687 71.9341C76.167 71.7661 76.623 71.4961 77.055 71.1241L77.559 72.1501C77.163 72.5341 76.659 72.8341 76.047 73.0501C75.447 73.2541 74.811 73.3561 74.139 73.3561ZM87.6154 73.3561C86.8954 73.3561 86.2234 73.2601 85.5994 73.0681C84.9754 72.8641 84.4594 72.5821 84.0514 72.2221L84.5554 71.1961C84.9994 71.5441 85.4794 71.8021 85.9954 71.9701C86.5234 72.1381 87.0694 72.2221 87.6334 72.2221C88.3534 72.2221 88.8934 72.0961 89.2534 71.8441C89.6254 71.5801 89.8114 71.2201 89.8114 70.7641C89.8114 70.4161 89.6914 70.1401 89.4514 69.9361C89.2234 69.7201 88.8454 69.5521 88.3174 69.4321L86.6434 69.0901C85.8754 68.9221 85.2994 68.6401 84.9154 68.2441C84.5314 67.8361 84.3394 67.3201 84.3394 66.6961C84.3394 66.1681 84.4774 65.7061 84.7534 65.3101C85.0294 64.9021 85.4314 64.5841 85.9594 64.3561C86.4874 64.1161 87.1054 63.9961 87.8134 63.9961C88.4734 63.9961 89.0794 64.0981 89.6314 64.3021C90.1954 64.4941 90.6634 64.7761 91.0354 65.1481L90.5134 66.1561C90.1534 65.8081 89.7394 65.5501 89.2714 65.3821C88.8154 65.2021 88.3414 65.1121 87.8494 65.1121C87.1414 65.1121 86.6074 65.2561 86.2474 65.5441C85.8994 65.8201 85.7254 66.1861 85.7254 66.6421C85.7254 66.9901 85.8334 67.2781 86.0494 67.5061C86.2774 67.7221 86.6254 67.8841 87.0934 67.9921L88.7674 68.3341C89.5834 68.5141 90.1894 68.7961 90.5854 69.1801C90.9934 69.5521 91.1974 70.0561 91.1974 70.6921C91.1974 71.2321 91.0474 71.7061 90.7474 72.1141C90.4474 72.5101 90.0274 72.8161 89.4874 73.0321C88.9594 73.2481 88.3354 73.3561 87.6154 73.3561ZM97.5531 73.3561C96.1371 73.3561 95.0211 72.9481 94.2051 72.1321C93.3891 71.3041 92.9811 70.1581 92.9811 68.6941C92.9811 67.7461 93.1611 66.9241 93.5211 66.2281C93.8811 65.5201 94.3851 64.9741 95.0331 64.5901C95.6811 64.1941 96.4251 63.9961 97.2651 63.9961C98.0931 63.9961 98.7891 64.1701 99.3531 64.5181C99.9171 64.8661 100.349 65.3641 100.649 66.0121C100.949 66.6481 101.099 67.4041 101.099 68.2801V68.8201H94.0971V67.9021H100.145L99.8391 68.1361C99.8391 67.1761 99.6231 66.4261 99.1911 65.8861C98.7591 65.3461 98.1171 65.0761 97.2651 65.0761C96.3651 65.0761 95.6631 65.3941 95.1591 66.0301C94.6551 66.6541 94.4031 67.5001 94.4031 68.5681V68.7301C94.4031 69.8581 94.6791 70.7161 95.2311 71.3041C95.7951 71.8801 96.5811 72.1681 97.5891 72.1681C98.1291 72.1681 98.6331 72.0901 99.1011 71.9341C99.5811 71.7661 100.037 71.4961 100.469 71.1241L100.973 72.1501C100.577 72.5341 100.073 72.8341 99.4611 73.0501C98.8611 73.2541 98.2251 73.3561 97.5531 73.3561ZM107.128 73.3561C106.24 73.3561 105.466 73.1641 104.806 72.7801C104.158 72.3961 103.654 71.8501 103.294 71.1421C102.946 70.4341 102.772 69.5941 102.772 68.6221C102.772 67.6381 102.952 66.8041 103.312 66.1201C103.672 65.4241 104.176 64.8961 104.824 64.5361C105.484 64.1761 106.252 63.9961 107.128 63.9961C107.704 63.9961 108.262 64.0981 108.802 64.3021C109.354 64.5061 109.81 64.7941 110.17 65.1661L109.648 66.2101C109.288 65.8621 108.892 65.6041 108.46 65.4361C108.04 65.2681 107.626 65.1841 107.218 65.1841C106.282 65.1841 105.556 65.4781 105.04 66.0661C104.524 66.6541 104.266 67.5121 104.266 68.6401C104.266 69.7561 104.524 70.6201 105.04 71.2321C105.556 71.8441 106.282 72.1501 107.218 72.1501C107.614 72.1501 108.022 72.0721 108.442 71.9161C108.874 71.7601 109.276 71.5021 109.648 71.1421L110.17 72.1681C109.798 72.5521 109.336 72.8461 108.784 73.0501C108.232 73.2541 107.68 73.3561 107.128 73.3561ZM115.774 73.3561C114.91 73.3561 114.154 73.1701 113.506 72.7981C112.87 72.4141 112.378 71.8741 112.03 71.1781C111.682 70.4701 111.508 69.6361 111.508 68.6761C111.508 67.7041 111.682 66.8701 112.03 66.1741C112.378 65.4781 112.87 64.9441 113.506 64.5721C114.154 64.1881 114.91 63.9961 115.774 63.9961C116.65 63.9961 117.406 64.1881 118.042 64.5721C118.69 64.9441 119.188 65.4781 119.536 66.1741C119.896 66.8701 120.076 67.7041 120.076 68.6761C120.076 69.6361 119.896 70.4701 119.536 71.1781C119.188 71.8741 118.69 72.4141 118.042 72.7981C117.406 73.1701 116.65 73.3561 115.774 73.3561ZM115.774 72.1681C116.638 72.1681 117.322 71.8741 117.826 71.2861C118.33 70.6861 118.582 69.8161 118.582 68.6761C118.582 67.5241 118.324 66.6541 117.808 66.0661C117.304 65.4661 116.626 65.1661 115.774 65.1661C114.922 65.1661 114.244 65.4661 113.74 66.0661C113.236 66.6541 112.984 67.5241 112.984 68.6761C112.984 69.8161 113.236 70.6861 113.74 71.2861C114.244 71.8741 114.922 72.1681 115.774 72.1681ZM122.35 73.1941V66.2461C122.35 65.9101 122.332 65.5681 122.296 65.2201C122.272 64.8601 122.242 64.5061 122.206 64.1581H123.61L123.79 66.1381H123.574C123.838 65.4421 124.258 64.9141 124.834 64.5541C125.422 64.1821 126.1 63.9961 126.868 63.9961C127.936 63.9961 128.74 64.2841 129.28 64.8601C129.832 65.4241 130.108 66.3181 130.108 67.5421V73.1941H128.65V67.6321C128.65 66.7801 128.476 66.1621 128.128 65.7781C127.792 65.3821 127.264 65.1841 126.544 65.1841C125.704 65.1841 125.038 65.4421 124.546 65.9581C124.054 66.4741 123.808 67.1641 123.808 68.0281V73.1941H122.35ZM136.316 73.3561C135.524 73.3561 134.828 73.1701 134.228 72.7981C133.628 72.4141 133.16 71.8741 132.824 71.1781C132.5 70.4821 132.338 69.6481 132.338 68.6761C132.338 67.6921 132.5 66.8521 132.824 66.1561C133.16 65.4601 133.628 64.9261 134.228 64.5541C134.828 64.1821 135.524 63.9961 136.316 63.9961C137.132 63.9961 137.834 64.2001 138.422 64.6081C139.022 65.0161 139.424 65.5681 139.628 66.2641H139.412V59.9461H140.87V73.1941H139.43V71.0341H139.628C139.436 71.7541 139.04 72.3241 138.44 72.7441C137.84 73.1521 137.132 73.3561 136.316 73.3561ZM136.622 72.1681C137.474 72.1681 138.158 71.8741 138.674 71.2861C139.19 70.6861 139.448 69.8161 139.448 68.6761C139.448 67.5241 139.19 66.6541 138.674 66.0661C138.158 65.4661 137.474 65.1661 136.622 65.1661C135.77 65.1661 135.086 65.4661 134.57 66.0661C134.066 66.6541 133.814 67.5241 133.814 68.6761C133.814 69.8161 134.066 70.6861 134.57 71.2861C135.086 71.8741 135.77 72.1681 136.622 72.1681ZM148.383 77.0821V66.2461C148.383 65.9101 148.365 65.5681 148.329 65.2201C148.305 64.8601 148.275 64.5061 148.239 64.1581H149.643L149.841 66.3001H149.625C149.817 65.5921 150.207 65.0341 150.795 64.6261C151.383 64.2061 152.085 63.9961 152.901 63.9961C153.717 63.9961 154.419 64.1821 155.007 64.5541C155.607 64.9261 156.075 65.4601 156.411 66.1561C156.747 66.8521 156.915 67.6921 156.915 68.6761C156.915 69.6481 156.747 70.4821 156.411 71.1781C156.087 71.8741 155.625 72.4141 155.025 72.7981C154.425 73.1701 153.717 73.3561 152.901 73.3561C152.097 73.3561 151.401 73.1521 150.813 72.7441C150.225 72.3361 149.835 71.7781 149.643 71.0701H149.841V77.0821H148.383ZM152.613 72.1681C153.477 72.1681 154.161 71.8741 154.665 71.2861C155.181 70.6861 155.439 69.8161 155.439 68.6761C155.439 67.5241 155.181 66.6541 154.665 66.0661C154.161 65.4661 153.477 65.1661 152.613 65.1661C151.761 65.1661 151.077 65.4661 150.561 66.0661C150.057 66.6541 149.805 67.5241 149.805 68.6761C149.805 69.8161 150.057 70.6861 150.561 71.2861C151.077 71.8741 151.761 72.1681 152.613 72.1681ZM159.14 73.1941V66.3361C159.14 65.9761 159.128 65.6101 159.104 65.2381C159.092 64.8661 159.068 64.5061 159.032 64.1581H160.436L160.616 66.3541L160.364 66.3721C160.484 65.8321 160.694 65.3881 160.994 65.0401C161.294 64.6921 161.648 64.4341 162.056 64.2661C162.464 64.0861 162.89 63.9961 163.334 63.9961C163.514 63.9961 163.67 64.0021 163.802 64.0141C163.946 64.0261 164.078 64.0561 164.198 64.1041L164.18 65.4001C164 65.3401 163.832 65.3041 163.676 65.2921C163.532 65.2681 163.364 65.2561 163.172 65.2561C162.644 65.2561 162.182 65.3821 161.786 65.6341C161.402 65.8861 161.108 66.2101 160.904 66.6061C160.712 67.0021 160.616 67.4221 160.616 67.8661V73.1941H159.14ZM169.317 73.3561C168.453 73.3561 167.697 73.1701 167.049 72.7981C166.413 72.4141 165.921 71.8741 165.573 71.1781C165.225 70.4701 165.051 69.6361 165.051 68.6761C165.051 67.7041 165.225 66.8701 165.573 66.1741C165.921 65.4781 166.413 64.9441 167.049 64.5721C167.697 64.1881 168.453 63.9961 169.317 63.9961C170.193 63.9961 170.949 64.1881 171.585 64.5721C172.233 64.9441 172.731 65.4781 173.079 66.1741C173.439 66.8701 173.619 67.7041 173.619 68.6761C173.619 69.6361 173.439 70.4701 173.079 71.1781C172.731 71.8741 172.233 72.4141 171.585 72.7981C170.949 73.1701 170.193 73.3561 169.317 73.3561ZM169.317 72.1681C170.181 72.1681 170.865 71.8741 171.369 71.2861C171.873 70.6861 172.125 69.8161 172.125 68.6761C172.125 67.5241 171.867 66.6541 171.351 66.0661C170.847 65.4661 170.169 65.1661 169.317 65.1661C168.465 65.1661 167.787 65.4661 167.283 66.0661C166.779 66.6541 166.527 67.5241 166.527 68.6761C166.527 69.8161 166.779 70.6861 167.283 71.2861C167.787 71.8741 168.465 72.1681 169.317 72.1681ZM180.429 73.3561C179.613 73.3561 178.911 73.1521 178.323 72.7441C177.735 72.3241 177.339 71.7541 177.135 71.0341H177.333V73.1941H175.893V59.9461H177.351V66.2641H177.135C177.339 65.5681 177.735 65.0161 178.323 64.6081C178.911 64.2001 179.613 63.9961 180.429 63.9961C181.245 63.9961 181.947 64.1881 182.535 64.5721C183.135 64.9441 183.597 65.4781 183.921 66.1741C184.257 66.8701 184.425 67.7041 184.425 68.6761C184.425 69.6481 184.257 70.4821 183.921 71.1781C183.585 71.8741 183.117 72.4141 182.517 72.7981C181.929 73.1701 181.233 73.3561 180.429 73.3561ZM180.123 72.1681C180.975 72.1681 181.659 71.8741 182.175 71.2861C182.691 70.6981 182.949 69.8281 182.949 68.6761C182.949 67.5241 182.691 66.6541 182.175 66.0661C181.659 65.4661 180.975 65.1661 180.123 65.1661C179.271 65.1661 178.587 65.4661 178.071 66.0661C177.567 66.6541 177.315 67.5241 177.315 68.6761C177.315 69.8161 177.567 70.6861 178.071 71.2861C178.587 71.8741 179.271 72.1681 180.123 72.1681ZM190.7 73.3561C189.284 73.3561 188.168 72.9481 187.352 72.1321C186.536 71.3041 186.128 70.1581 186.128 68.6941C186.128 67.7461 186.308 66.9241 186.668 66.2281C187.028 65.5201 187.532 64.9741 188.18 64.5901C188.828 64.1941 189.572 63.9961 190.412 63.9961C191.24 63.9961 191.936 64.1701 192.5 64.5181C193.064 64.8661 193.496 65.3641 193.796 66.0121C194.096 66.6481 194.246 67.4041 194.246 68.2801V68.8201H187.244V67.9021H193.292L192.986 68.1361C192.986 67.1761 192.77 66.4261 192.338 65.8861C191.906 65.3461 191.264 65.0761 190.412 65.0761C189.512 65.0761 188.81 65.3941 188.306 66.0301C187.802 66.6541 187.55 67.5001 187.55 68.5681V68.7301C187.55 69.8581 187.826 70.7161 188.378 71.3041C188.942 71.8801 189.728 72.1681 190.736 72.1681C191.276 72.1681 191.78 72.0901 192.248 71.9341C192.728 71.7661 193.184 71.4961 193.616 71.1241L194.12 72.1501C193.724 72.5341 193.22 72.8341 192.608 73.0501C192.008 73.2541 191.372 73.3561 190.7 73.3561Z" fill="#A0A2A5"/>
</svg>
